<svg height="398pt" viewBox="0 0 398 398.68422" width="398pt" xmlns="http://www.w3.org/2000/svg" xmlns:xlink="http://www.w3.org/1999/xlink"><linearGradient id="a"><stop offset="0" stop-color="#00efd1"/><stop offset="1" stop-color="#00acea"/></linearGradient><linearGradient id="b" gradientUnits="userSpaceOnUse" x1="136.398458" x2="136.398458" xlink:href="#a" y1="-40.658188" y2="439.108812"/><linearGradient id="c" gradientUnits="userSpaceOnUse" x1="200.187458" x2="200.187458" xlink:href="#a" y1="-40.658188" y2="439.108812"/><linearGradient id="d" gradientUnits="userSpaceOnUse" x1="249.687458" x2="249.687458" xlink:href="#a" y1="-40.658188" y2="439.108812"/><linearGradient id="e" gradientUnits="userSpaceOnUse" x1="297.930458" x2="297.930458" xlink:href="#a" y1="-40.658188" y2="439.108812"/><linearGradient id="f" gradientUnits="userSpaceOnUse" x1="297.838458" x2="297.838458" xlink:href="#a" y1="-40.658188" y2="439.108812"/><linearGradient id="g" gradientUnits="userSpaceOnUse" x1="199.687458" x2="199.687458" xlink:href="#a" y1="-40.658188" y2="439.108812"/><path d="m169.101562 164.988281c-2.710937 0-4.515624 1.074219-5.070312 3.023438l-13.429688 45.316406-6.824218-29.207031c-.636719-2.855469-4.269532-4.15625-7.378906-4.15625-3.105469 0-6.742188 1.300781-7.378907 4.152344l-6.824219 29.210937-13.425781-45.3125c-.558593-1.953125-2.359375-3.027344-5.074219-3.027344-4.429687 0-9.777343 2.765625-9.777343 6.199219 0 .460938.070312.914062.207031 1.351562l18.28125 56.03125c1.1875 3.785157 6.097656 5.128907 9.9375 5.128907 4.273438 0 8.949219-1.601563 9.769531-5.171875l4.285157-19.546875 4.289062 19.546875c.816406 3.570312 5.492188 5.167968 9.765625 5.167968 4.96875 0 8.871094-2.007812 9.933594-5.117187l18.285156-56.035156c.136719-.4375.207031-.894531.207031-1.355469 0-3.433594-5.347656-6.199219-9.777344-6.199219zm0 0" fill="url(#b)"/><path d="m200.1875 164.988281c-3.535156 0-7.5 1.261719-7.5 4.820313v58.425781c0 3.371094 3.808594 4.910156 7.5 4.910156s7.5-1.539062 7.5-4.910156v-58.425781c0-3.558594-3.964844-4.820313-7.5-4.820313zm0 0" fill="url(#c)"/><path d="m266.1875 164.988281c-3.535156 0-7.5 1.261719-7.5 4.820313v29.199218l-14.109375-26.589843c-3.570313-6.855469-5.722656-7.433594-11.117187-7.433594-3.816407 0-7.773438 1.519531-7.773438 4.910156v58.335938c0 3.371093 3.808594 4.910156 7.5 4.910156s7.5-1.539063 7.5-4.910156v-29.28125l16.707031 30.074219c1.96875 3.628906 5.464844 4.121093 8.527344 4.121093 3.691406 0 7.765625-1.539062 7.765625-4.910156v-58.425781c0-3.558594-3.964844-4.820313-7.5-4.820313zm0 0" fill="url(#d)"/><path d="m297.976562 218.546875c-2.015624-.023437-3.953124.769531-5.378906 2.195313-1.425781 1.421874-2.214844 3.363281-2.195312 5.378906.003906 4.179687 3.394531 7.570312 7.574218 7.574218 4.113282-.128906 7.402344-3.460937 7.480469-7.574218-.027343-4.136719-3.347656-7.496094-7.480469-7.574219zm0 0" fill="url(#e)"/><path d="m291.964844 208.664062c0 2.800782 2.269531 4.542969 5.917968 4.542969 2.253907 0 5.828126-1.230469 5.828126-4.542969 0-5.453124.328124-12.21875.644531-18.761718.3125-6.542969.644531-13.332032.644531-18.808594 0-3.59375-2.925781-6.101562-7.117188-6.101562-4.308593 0-7.203124 2.453124-7.203124 6.101562 0 5.476562.324218 12.253906.644531 18.808594.316406 6.554687.640625 13.308594.640625 18.761718zm0 0" fill="url(#f)"/><path d="m387.546875 163.636719c-5.292969-8.066407-7.871094-17.613281-7.363281-27.246094l.160156-2.921875c1.332031-24.191406-11.777344-46.875-33.398438-57.800781l-2.460937-1.242188c-8.59375-4.316406-15.5625-11.285156-19.878906-19.875l-1.242188-2.460937c-10.921875-21.625-33.609375-34.734375-57.800781-33.398438l-2.921875.160156c-9.632813.511719-19.179687-2.070312-27.246094-7.363281l-2.125-1.402343c-20.367187-13.449219-46.789062-13.449219-67.15625 0l-2.125 1.402343c-8.066406 5.292969-17.613281 7.871094-27.246093 7.363281l-2.921876-.164062c-24.191406-1.335938-46.878906 11.773438-57.800781 33.402344l-1.242187 2.457031c-4.316406 8.59375-11.285156 15.5625-19.878906 19.878906l-2.460938 1.242188c-21.621094 10.925781-34.730469 33.609375-33.398438 57.800781l.160157 2.925781c.507812 9.636719-2.074219 19.179688-7.371094 27.246094l-1.398437 2.128906c-13.449219 20.363281-13.449219 46.789063 0 67.152344l1.398437 2.132813c5.289063 8.0625 7.867187 17.605468 7.359375 27.238281l-.160156 2.921875c-1.332032 24.191406 11.777344 46.875 33.398437 57.800781l2.460938 1.242187c8.59375 4.316407 15.5625 11.285157 19.878906 19.875l1.242187 2.460938c10.921876 21.625 33.609376 34.734375 57.800782 33.398438l2.921875-.160157c9.632812-.507812 19.179687 2.074219 27.242187 7.363281l2.128906 1.402344c20.363282 13.449219 46.789063 13.449219 67.15625 0l2.125-1.402344c8.066407-5.289062 17.613282-7.871093 27.246094-7.363281l2.921875.164063c24.191407 1.332031 46.875-11.777344 57.800781-33.402344l1.242188-2.457031c4.316406-8.59375 11.285156-15.5625 19.878906-19.878907l2.460938-1.242187c21.621094-10.925781 34.730468-33.609375 33.398437-57.800781l-.160156-2.925782c-.507813-9.632812 2.070313-19.175781 7.363281-27.242187l1.398438-2.128906c13.449218-20.363281 13.449218-46.789063 0-67.152344zm-11.960937 60.476562-1.398438 2.125c-7.175781 10.933594-10.671875 23.871094-9.980469 36.929688l.160157 2.925781c.980468 17.847656-8.691407 34.582031-24.644532 42.640625l-2.460937 1.242187c-11.644531 5.851563-21.089844 15.296876-26.941407 26.941407l-1.242187 2.460937c-8.058594 15.953125-24.792969 25.625-42.636719 24.644532l-2.925781-.160157c-13.058594-.691406-25.996094 2.804688-36.929687 9.980469l-2.125 1.398438c-15.023438 9.921874-34.519532 9.921874-49.542969 0l-2.125-1.398438c-10-6.5625-21.691407-10.0625-33.648438-10.074219-1.097656 0-2.191406.03125-3.285156.089844l-2.921875.164063c-17.847656.980468-34.582031-8.691407-42.640625-24.644532l-1.242187-2.460937c-5.851563-11.644531-15.296876-21.09375-26.941407-26.941407l-2.460937-1.242187c-15.953125-8.058594-25.628906-24.796875-24.644532-42.640625l.160157-2.921875c.6875-13.058594-2.808594-25.996094-9.980469-36.929687l-1.398438-2.128907c-9.925781-15.023437-9.925781-34.519531 0-49.542969l1.398438-2.125c7.175781-10.933593 10.671875-23.871093 9.980469-36.929687l-.160157-2.925781c-.980468-17.84375 8.691407-34.582032 24.644532-42.640625l2.460937-1.242188c11.644531-5.847656 21.089844-15.296875 26.941407-26.941406l1.242187-2.460937c8.0625-15.949219 24.792969-25.621094 42.636719-24.644532l2.925781.164063c13.058594.6875 25.996094-2.808594 36.929687-9.980469l2.125-1.402344c15.023438-9.921875 34.519532-9.921875 49.542969 0l2.125 1.402344c10.9375 7.171875 23.875 10.667969 36.933594 9.976562l2.925781-.160156c17.84375-.980468 34.578125 8.691406 42.636719 24.644532l1.246094 2.460937c5.847656 11.644531 15.296875 21.089844 26.941406 26.941406l2.460937 1.242188c15.953126 8.058593 25.625 24.796875 24.640626 42.644531l-.160157 2.917969c-.691406 13.058593 2.808594 25.996093 9.980469 36.929687l1.398438 2.128906c9.925781 15.023438 9.925781 34.519532 0 49.542969zm0 0" fill="url(#g)"/></svg>